<?xml version="1.0" encoding="UTF-8"?>
<!--Generator: Apple Native CoreSVG 341-->
<!DOCTYPE svg
PUBLIC "-//W3C//DTD SVG 1.1//EN"
       "http://www.w3.org/Graphics/SVG/1.1/DTD/svg11.dtd">
<svg version="1.1" xmlns="http://www.w3.org/2000/svg" xmlns:xlink="http://www.w3.org/1999/xlink" viewBox="0 0 63.5977 30.9727">
 <g>
  <rect height="30.9727" opacity="0" width="63.5977" x="0" y="0"/>
  <path d="M61.3828 27.1641C61.3828 28.3711 60.4453 29.1094 58.9102 29.1094L45.6457 29.1094C45.999 28.5425 46.1836 27.8767 46.1836 27.1641C46.1836 24.582 44.6319 21.6724 41.8849 19.4841C43.7661 18.5169 46.0666 17.9062 48.7031 17.9062C56.5195 17.9062 61.3828 23.2734 61.3828 27.1641ZM54.7148 8.54297C54.7148 12.3047 51.9727 15.1992 48.7148 15.1992C45.457 15.1992 42.7148 12.3047 42.7148 8.56641C42.7148 4.92188 45.4805 2.07422 48.7148 2.07422C51.9492 2.07422 54.7148 4.875 54.7148 8.54297Z" fill="#59deca"/>
  <path d="M44.3086 27.1641C44.3086 28.3711 43.3711 29.1094 41.8477 29.1094L28.5598 29.1094C28.9131 28.5425 29.0977 27.8767 29.0977 27.1641C29.0977 24.5834 27.5477 21.6756 24.8037 19.4877C26.6861 18.5184 28.9891 17.9062 31.6289 17.9062C39.4453 17.9062 44.3086 23.2734 44.3086 27.1641ZM37.6523 8.54297C37.6523 12.3047 34.9102 15.1992 31.6523 15.1992C28.3828 15.1992 25.6406 12.3047 25.6406 8.56641C25.6406 4.92188 28.4062 2.07422 31.6523 2.07422C34.8867 2.07422 37.6523 4.875 37.6523 8.54297Z" fill="#59deca"/>
  <path d="M14.5664 15.1992C17.8242 15.1992 20.5664 12.3047 20.5664 8.54297C20.5664 4.875 17.8008 2.07422 14.5664 2.07422C11.3203 2.07422 8.56641 4.92188 8.56641 8.56641C8.56641 12.3047 11.3086 15.1992 14.5664 15.1992ZM4.33594 29.1094L24.7617 29.1094C26.2969 29.1094 27.2344 28.3711 27.2344 27.1641C27.2344 23.2734 22.3594 17.9062 14.543 17.9062C6.73828 17.9062 1.86328 23.2734 1.86328 27.1641C1.86328 28.3711 2.80078 29.1094 4.33594 29.1094Z" fill="#59deca"/>
 </g>
</svg>
